<svg id="Layer_1" data-name="Layer 1" xmlns="http://www.w3.org/2000/svg" width="122.11" height="122.11" viewBox="0 0 122.11 122.11">
  <title>petri dish</title>
  <g>
    <path d="M735.18,1615.16a15.51,15.51,0,0,0-5.8-9.61,16.22,16.22,0,0,0-4.61-2.55,15,15,0,0,0-5-.88c-0.35,0-.69,0-1,0A12.48,12.48,0,0,0,707,1616.93a16,16,0,0,0,16.51,13A12.46,12.46,0,0,0,735.18,1615.16Zm-12,3.28a2.4,2.4,0,1,1,2.4-2.4A2.4,2.4,0,0,1,723.22,1618.44Z" transform="translate(-639.3 -1573.46)" fill="#FFE66D"/>
    <path d="M706.29,1662.93a10.19,10.19,0,0,0-7.21-6.95c-8.73-2.28-17.15-10.35-16.28-23.25a10.24,10.24,0,0,0-9.51-10.89l-0.7,0a10.23,10.23,0,0,0-10.19,9.53c-1.65,24.43,15.18,40.14,31.51,44.41A10.22,10.22,0,0,0,706.29,1662.93Zm-25.38-4.83a2.4,2.4,0,1,1,2.4-2.4A2.4,2.4,0,0,1,680.91,1658.1Zm8.89,6.57a2.4,2.4,0,1,1,2.4-2.4A2.4,2.4,0,0,1,689.79,1664.67Z" transform="translate(-639.3 -1573.46)" fill="#FFE66D"/>
    <path d="M717.39,1575.89a61,61,0,1,0,41.6,75.64A61.11,61.11,0,0,0,717.39,1575.89Zm-43.53,16.6c1.71-2.82,6.28-7.44,11.3-4.77a1.34,1.34,0,0,1-1.25,2.36c-4.08-2.17-7.73,3.74-7.77,3.8A1.34,1.34,0,0,1,673.86,1592.49Zm-3.1,4.81a1.57,1.57,0,1,1-1.57,1.57A1.57,1.57,0,0,1,670.76,1597.3ZM714,1670.13h-5.31a12.79,12.79,0,0,1-2.76,4.55l2.81,1.59a1.34,1.34,0,0,1-.66,2.5,1.32,1.32,0,0,1-.66-0.17l-3.66-2.07a12.91,12.91,0,0,1-7.25,2.25,13.06,13.06,0,0,1-3.25-.42,46,46,0,0,1-18.86-10.24l-2.53,3.51a1.34,1.34,0,0,1-2.17-1.56l2.75-3.81c-1-1-2-2.15-3-3.31l-6.67,3.69a1.34,1.34,0,0,1-1.29-2.34l6.33-3.5a43.35,43.35,0,0,1-7.16-16.22h-6.11a1.34,1.34,0,0,1,0-2.67h5.63a49,49,0,0,1-.43-10.73,12.9,12.9,0,0,1,.87-3.86,1.3,1.3,0,0,1-.53-0.27l-5.11-4.42a1.34,1.34,0,1,1,1.75-2l5.09,4.4a12.93,12.93,0,0,1,2.32-2.67,12.72,12.72,0,0,1,10.93-2.93l2.78-6a1.34,1.34,0,0,1,2.43,1.12l-2.62,5.7a12.9,12.9,0,0,1,7.83,12.72c-0.62,9.34,4.25,15.8,10.26,18.92l3.7-3.81a1.34,1.34,0,0,1,1.92,1.86l-3,3.08q0.71,0.24,1.42.43a12.8,12.8,0,0,1,9.08,8.76,12.58,12.58,0,0,1,.55,3.71,12.86,12.86,0,0,1-.1,1.59H714A1.34,1.34,0,0,1,714,1670.13Zm4.24-11.56a1.57,1.57,0,1,1,1.57-1.57A1.57,1.57,0,0,1,718.2,1658.57Zm5.52-26c-0.41,0-.83,0-1.24,0a17.91,17.91,0,0,1-7.93-1.89l-3,6a1.34,1.34,0,0,1-2.39-1.19l3.06-6.17c-0.36-.25-0.72-0.5-1.07-0.77a18.21,18.21,0,0,1-6.78-11.27,16,16,0,0,1,.14-6.08l-7.47-2.76A1.34,1.34,0,0,1,698,1606l7.35,2.72a14.79,14.79,0,0,1,5.58-6.75l-2.71-5.13a1.34,1.34,0,0,1,2.36-1.25l2.71,5.13a16.15,16.15,0,0,1,5.19-1.25,18.19,18.19,0,0,1,12.54,4,19.11,19.11,0,0,1,1.93,1.77l2.91-3.57a1.34,1.34,0,1,1,2.07,1.69l-3.23,4a17.74,17.74,0,0,1,3.11,7.42,15.44,15.44,0,0,1-2.28,11.13l3.75,3.48a1.34,1.34,0,1,1-1.82,2l-3.6-3.34A15.4,15.4,0,0,1,723.73,1632.6Zm15,29.68a2.82,2.82,0,0,0-1.72.87,2.69,2.69,0,0,0-.46,2,5.73,5.73,0,0,1-1.61,4.91,4.69,4.69,0,0,1-3.13,1.23,4.07,4.07,0,0,1-.72-0.06,1.34,1.34,0,1,1,.47-2.63,1.92,1.92,0,0,0,1.58-.5,3.12,3.12,0,0,0,.76-2.69,5.22,5.22,0,0,1,1.09-4,5.45,5.45,0,0,1,3.54-1.79,1.35,1.35,0,0,1,1.43,1.23A1.34,1.34,0,0,1,738.72,1662.27Zm12.33-29.39a1.57,1.57,0,1,1,1.57-1.57A1.57,1.57,0,0,1,751.05,1632.88Z" transform="translate(-639.3 -1573.46)" fill="#86BBD8"/>
  </g>
</svg>
