<svg id="Layer_1" data-name="Layer 1" xmlns="http://www.w3.org/2000/svg" width="141.13" height="93.21" viewBox="0 0 141.13 93.21">
  <title>book and glasses</title>
  <g>
    <path d="M1226,842.41a2.62,2.62,0,0,0-2.67-2.57l-8.44.17a19.13,19.13,0,0,0-36.46-4.62q-0.63-.32-1.29-0.59a14.93,14.93,0,0,0-11.54.23,14.75,14.75,0,0,0-2.68,1.56,19.14,19.14,0,0,0-36.65,5.2l-9,.18a2.62,2.62,0,1,0,.11,5.24l9-.18a19.15,19.15,0,0,0,38.06-3.39c0-.47-0.06-0.92-0.1-1.38a2.63,2.63,0,0,0,.39-0.33,9.53,9.53,0,0,1,3-2.12,9.67,9.67,0,0,1,7.46-.15,9.53,9.53,0,0,1,1.81,1,19.14,19.14,0,1,0,38,4.61l8.44-.17A2.62,2.62,0,0,0,1226,842.41Zm-80.46,14.79a13.17,13.17,0,1,1,12.9-13.43A13.19,13.19,0,0,1,1145.58,857.2Zm50.71-1a13.17,13.17,0,1,1,12.9-13.43A13.19,13.19,0,0,1,1196.29,856.18Z" transform="translate(-1096.67 -823.85)" fill="#86BBD8"/>
    <path d="M1236.47,917.06H1121.84a25.17,25.17,0,0,1,0-50.34h114.63a1.34,1.34,0,0,1,0,2.67H1121.84a22.5,22.5,0,0,0,0,45h114.63A1.34,1.34,0,0,1,1236.47,917.06Z" transform="translate(-1096.67 -823.85)" fill="#FFE66D"/>
    <path d="M1146.77,895.74a1.33,1.33,0,0,1,1.59,0l11.5,8.47V886.26h-25.3v18.55Z" transform="translate(-1096.67 -823.85)" fill="#86BBD8"/>
    <rect x="65.86" y="62.41" width="66.13" height="10.9" fill="#FFE66D"/>
    <path d="M1122.2,872.69a19.2,19.2,0,0,0,0,38.39h106.46V899.84h-66.13v7a1.34,1.34,0,0,1-2.13,1.08l-11-8.08h-3.69l-11.72,8.7a1.34,1.34,0,0,1-2.13-1.07v-7.63H1123a1.34,1.34,0,0,1,0-2.67h8.92v-10.9H1123a1.34,1.34,0,0,1,0-2.67h105.69v-10.9H1122.2Z" transform="translate(-1096.67 -823.85)" fill="#FFE66D"/>
  </g>
</svg>
